solid fillement slip fix
facet normal 0.9238795325112862 0.38268343236509117 -1.1180630467234508e-18
  outer loop
    vertex 82.55377849403924 95.52367255730937 0.0
    vertex 82.83131435530991 94.8536417169848 2.7781249999999984
    vertex 82.83131435530991 94.8536417169848 0.0
  endloop
endfacet
facet normal 0.9238795325112862 0.38268343236509117 -1.1180630467234508e-18
  outer loop
    vertex 82.83131435530991 94.8536417169848 2.7781249999999984
    vertex 82.55377849403924 95.52367255730937 0.0
    vertex 82.55377849403924 95.52367255730937 2.7781249999999984
  endloop
endfacet
facet normal 0.793353340291238 0.6087614290087169 1.4584580718450297e-30
  outer loop
    vertex 82.83131435530991 94.8536417169848 0.0
    vertex 83.27281015371467 94.27827319050093 2.7781249999999984
    vertex 83.27281015371467 94.27827319050093 0.0
  endloop
endfacet
facet normal 0.793353340291238 0.6087614290087169 1.4584580718450297e-30
  outer loop
    vertex 83.27281015371467 94.27827319050093 2.7781249999999984
    vertex 82.83131435530991 94.8536417169848 0.0
    vertex 82.83131435530991 94.8536417169848 2.7781249999999984
  endloop
endfacet
facet normal 0.608761429008717 0.793353340291238 6.496528643478451e-31
  outer loop
    vertex 83.27281015371467 94.27827319050093 2.7781249999999984
    vertex 83.84817868019856 93.83677739209615 0.0
    vertex 83.27281015371467 94.27827319050093 0.0
  endloop
endfacet
facet normal 0.608761429008717 0.793353340291238 6.496528643478451e-31
  outer loop
    vertex 83.84817868019856 93.83677739209615 0.0
    vertex 83.27281015371467 94.27827319050093 2.7781249999999984
    vertex 83.84817868019856 93.83677739209615 2.7781249999999984
  endloop
endfacet
facet normal 0.38268343236509117 0.9238795325112862 1.1180630467227317e-18
  outer loop
    vertex 83.84817868019856 93.83677739209615 2.7781249999999984
    vertex 84.51820952052311 93.55924153082547 0.0
    vertex 83.84817868019856 93.83677739209615 0.0
  endloop
endfacet
facet normal 0.38268343236509117 0.9238795325112862 1.1180630467227317e-18
  outer loop
    vertex 84.51820952052311 93.55924153082547 0.0
    vertex 83.84817868019856 93.83677739209615 2.7781249999999984
    vertex 84.51820952052311 93.55924153082547 2.7781249999999984
  endloop
endfacet
facet normal -0.6087614290087169 0.7933533402912383 -0.0
  outer loop
    vertex 83.27281015371467 98.20713524346868 5.95312500000001
    vertex 83.84817868019856 98.64863104187346 3.175
    vertex 83.27281015371467 98.20713524346868 3.175
  endloop
endfacet
facet normal -0.6087614290087169 0.7933533402912383 -0.0
  outer loop
    vertex 83.84817868019856 98.64863104187346 3.175
    vertex 83.27281015371467 98.20713524346868 5.95312500000001
    vertex 83.84817868019856 98.64863104187346 5.95312500000001
  endloop
endfacet
facet normal -0.38268343236509117 0.9238795325112862 -0.0
  outer loop
    vertex 83.84817868019856 98.64863104187346 5.95312500000001
    vertex 84.51820952052311 98.92616690314412 3.175
    vertex 83.84817868019856 98.64863104187346 3.175
  endloop
endfacet
facet normal -0.38268343236509117 0.9238795325112862 -0.0
  outer loop
    vertex 84.51820952052311 98.92616690314412 3.175
    vertex 83.84817868019856 98.64863104187346 5.95312500000001
    vertex 84.51820952052311 98.92616690314412 5.95312500000001
  endloop
endfacet
facet normal -0.13052619222004494 0.9914448613738114 -0.0
  outer loop
    vertex 84.51820952052311 98.92616690314412 5.95312500000001
    vertex 85.23724118019855 99.02082921698481 3.175
    vertex 84.51820952052311 98.92616690314412 3.175
  endloop
endfacet
facet normal -0.13052619222004494 0.9914448613738114 -0.0
  outer loop
    vertex 85.23724118019855 99.02082921698481 3.175
    vertex 84.51820952052311 98.92616690314412 5.95312500000001
    vertex 85.23724118019855 99.02082921698481 5.95312500000001
  endloop
endfacet
facet normal 0.13052619222004494 0.9914448613738114 -0.0
  outer loop
    vertex 85.23724118019855 99.02082921698481 5.95312500000001
    vertex 85.95627283987399 98.92616690314412 3.175
    vertex 85.23724118019855 99.02082921698481 3.175
  endloop
endfacet
facet normal 0.13052619222004494 0.9914448613738114 -0.0
  outer loop
    vertex 85.95627283987399 98.92616690314412 3.175
    vertex 85.23724118019855 99.02082921698481 5.95312500000001
    vertex 85.95627283987399 98.92616690314412 5.95312500000001
  endloop
endfacet
facet normal 0.0 0.0 -1.0
  outer loop
    vertex 82.55377849403924 96.96173587666021 2.7781249999999984
    vertex 82.55377849403924 95.52367255730937 2.7781249999999984
    vertex 82.45911618019855 96.24270421698482 2.7781249999999984
  endloop
endfacet
facet normal 0.0 0.0 -1.0
  outer loop
    vertex 82.55377849403924 95.52367255730937 2.7781249999999984
    vertex 82.55377849403924 96.96173587666021 2.7781249999999984
    vertex 82.83131435530991 97.6317667169848 2.7781249999999984
  endloop
endfacet
facet normal 0.0 0.0 -1.0
  outer loop
    vertex 82.55377849403924 95.52367255730937 2.7781249999999984
    vertex 82.83131435530991 97.6317667169848 2.7781249999999984
    vertex 82.83131435530991 94.8536417169848 2.7781249999999984
  endloop
endfacet
facet normal 0.0 0.0 -1.0
  outer loop
    vertex 82.83131435530991 94.8536417169848 2.7781249999999984
    vertex 82.83131435530991 97.6317667169848 2.7781249999999984
    vertex 83.27281015371467 98.20713524346866 2.7781249999999984
  endloop
endfacet
facet normal 0.0 0.0 -1.0
  outer loop
    vertex 82.83131435530991 94.8536417169848 2.7781249999999984
    vertex 83.27281015371467 98.20713524346866 2.7781249999999984
    vertex 83.25286618019855 96.24270421698485 2.7781249999999984
  endloop
endfacet
facet normal 0.0 0.0 -1.0
  outer loop
    vertex 83.25286618019855 96.24270421698485 2.7781249999999984
    vertex 83.27281015371467 98.20713524346866 2.7781249999999984
    vertex 83.32048211865617 96.75629825961018 2.7781249999999984
  endloop
endfacet
facet normal 0.0 0.0 -1.0
  outer loop
    vertex 83.32048211865617 96.75629825961018 2.7781249999999984
    vertex 83.27281015371467 98.20713524346866 2.7781249999999984
    vertex 83.84817868019856 98.64863104187344 2.7781249999999984
  endloop
endfacet
facet normal 0.0 0.0 -1.0
  outer loop
    vertex 83.32048211865617 96.75629825961018 2.7781249999999984
    vertex 83.84817868019856 98.64863104187344 2.7781249999999984
    vertex 83.5187220195638 97.23489171698475 2.7781249999999984
  endloop
endfacet
facet normal 0.0 0.0 -1.0
  outer loop
    vertex 83.5187220195638 97.23489171698475 2.7781249999999984
    vertex 83.84817868019856 98.64863104187344 2.7781249999999984
    vertex 83.83407616128149 97.64586923590186 2.7781249999999984
  endloop
endfacet
facet normal 0.0 0.0 -1.0
  outer loop
    vertex 83.83407616128149 97.64586923590186 2.7781249999999984
    vertex 83.84817868019856 98.64863104187344 2.7781249999999984
    vertex 84.24505368019855 97.96122337761955 2.7781249999999984
  endloop
endfacet
facet normal 0.0 0.0 -1.0
  outer loop
    vertex 84.24505368019855 97.96122337761955 2.7781249999999984
    vertex 83.84817868019856 98.64863104187344 2.7781249999999984
    vertex 84.51820952052311 98.92616690314411 2.7781249999999984
  endloop
endfacet
facet normal 0.0 0.0 -1.0
  outer loop
    vertex 84.24505368019855 97.96122337761955 2.7781249999999984
    vertex 84.51820952052311 98.92616690314411 2.7781249999999984
    vertex 84.72364713757325 98.15946327852708 2.7781249999999984
  endloop
endfacet
facet normal 0.0 0.0 -1.0
  outer loop
    vertex 84.72364713757325 98.15946327852708 2.7781249999999984
    vertex 84.51820952052311 98.92616690314411 2.7781249999999984
    vertex 85.23724118019855 99.02082921698481 2.7781249999999984
  endloop
endfacet
facet normal 0.0 0.0 -1.0
  outer loop
    vertex 84.72364713757325 98.15946327852708 2.7781249999999984
    vertex 85.23724118019855 99.02082921698481 2.7781249999999984
    vertex 85.23724118019855 98.22707921698472 2.7781249999999984
  endloop
endfacet
facet normal 0.0 0.0 -1.0
  outer loop
    vertex 85.23724118019855 98.22707921698472 2.7781249999999984
    vertex 85.23724118019855 99.02082921698481 2.7781249999999984
    vertex 85.95627283987399 98.92616690314411 2.7781249999999984
  endloop
endfacet
facet normal 0.0 0.0 -1.0
  outer loop
    vertex 85.23724118019855 98.22707921698472 2.7781249999999984
    vertex 85.95627283987399 98.92616690314411 2.7781249999999984
    vertex 85.75083522282387 98.15946327852708 2.7781249999999984
  endloop
endfacet
facet normal 0.0 0.0 -1.0
  outer loop
    vertex 85.75083522282387 98.15946327852708 2.7781249999999984
    vertex 85.95627283987399 98.92616690314411 2.7781249999999984
    vertex 86.22942868019855 97.96122337761955 2.7781249999999984
  endloop
endfacet
facet normal 0.0 0.0 -1.0
  outer loop
    vertex 86.22942868019855 97.96122337761955 2.7781249999999984
    vertex 85.95627283987399 98.92616690314411 2.7781249999999984
    vertex 86.62630368019856 98.64863104187344 2.7781249999999984
  endloop
endfacet
facet normal 0.0 0.0 -1.0
  outer loop
    vertex 86.22942868019855 97.96122337761955 2.7781249999999984
    vertex 86.62630368019856 98.64863104187344 2.7781249999999984
    vertex 86.64040619911562 97.64586923590186 2.7781249999999984
  endloop
endfacet
facet normal 0.0 0.0 -1.0
  outer loop
    vertex 86.64040619911562 97.64586923590186 2.7781249999999984
    vertex 86.62630368019856 98.64863104187344 2.7781249999999984
    vertex 87.20167220668243 98.20713524346866 2.7781249999999984
  endloop
endfacet
facet normal 0.0 0.0 -1.0
  outer loop
    vertex 86.64040619911562 97.64586923590186 2.7781249999999984
    vertex 87.20167220668243 98.20713524346866 2.7781249999999984
    vertex 86.95576034083331 97.23489171698475 2.7781249999999984
  endloop
endfacet
facet normal 0.0 0.0 -1.0
  outer loop
    vertex 86.95576034083331 97.23489171698475 2.7781249999999984
    vertex 87.20167220668243 98.20713524346866 2.7781249999999984
    vertex 87.15400024174093 96.75629825961012 2.7781249999999984
  endloop
endfacet
facet normal 0.0 0.0 -1.0
  outer loop
    vertex 87.15400024174093 96.75629825961012 2.7781249999999984
    vertex 87.20167220668243 98.20713524346866 2.7781249999999984
    vertex 87.22161618019855 96.2427042169848 2.7781249999999984
  endloop
endfacet
facet normal 0.0 0.0 -1.0
  outer loop
    vertex 87.22161618019855 96.2427042169848 2.7781249999999984
    vertex 87.20167220668243 98.20713524346866 2.7781249999999984
    vertex 87.6431680050872 97.6317667169848 2.7781249999999984
  endloop
endfacet
facet normal 0.0 0.0 -1.0
  outer loop
    vertex 83.25286618019855 96.24270421698485 2.7781249999999984
    vertex 83.27281015371467 94.27827319050093 2.7781249999999984
    vertex 82.83131435530991 94.8536417169848 2.7781249999999984
  endloop
endfacet
facet normal 0.0 0.0 -1.0
  outer loop
    vertex 83.27281015371467 94.27827319050093 2.7781249999999984
    vertex 83.25286618019855 96.24270421698485 2.7781249999999984
    vertex 83.32048211865617 95.72911017435952 2.7781249999999984
  endloop
endfacet
facet normal 0.0 0.0 -1.0
  outer loop
    vertex 83.27281015371467 94.27827319050093 2.7781249999999984
    vertex 83.32048211865617 95.72911017435952 2.7781249999999984
    vertex 83.84817868019856 93.83677739209615 2.7781249999999984
  endloop
endfacet
facet normal 0.0 0.0 -1.0
  outer loop
    vertex 83.84817868019856 93.83677739209615 2.7781249999999984
    vertex 83.32048211865617 95.72911017435952 2.7781249999999984
    vertex 83.5187220195638 95.25051671698485 2.7781249999999984
  endloop
endfacet
facet normal 0.0 0.0 -1.0
  outer loop
    vertex 83.84817868019856 93.83677739209615 2.7781249999999984
    vertex 83.5187220195638 95.25051671698485 2.7781249999999984
    vertex 83.83407616128149 94.83953919806785 2.7781249999999984
  endloop
endfacet
facet normal 0.0 0.0 -1.0
  outer loop
    vertex 83.84817868019856 93.83677739209615 2.7781249999999984
    vertex 83.83407616128149 94.83953919806785 2.7781249999999984
    vertex 84.24505368019855 94.52418505635015 2.7781249999999984
  endloop
endfacet
facet normal 0.0 0.0 -1.0
  outer loop
    vertex 83.84817868019856 93.83677739209615 2.7781249999999984
    vertex 84.24505368019855 94.52418505635015 2.7781249999999984
    vertex 84.51820952052311 93.55924153082547 2.7781249999999984
  endloop
endfacet
facet normal 0.0 0.0 -1.0
  outer loop
    vertex 84.51820952052311 93.55924153082547 2.7781249999999984
    vertex 84.24505368019855 94.52418505635015 2.7781249999999984
    vertex 84.72364713757325 94.32594515544253 2.7781249999999984
  endloop
endfacet
facet normal 0.0 0.0 -1.0
  outer loop
    vertex 84.51820952052311 93.55924153082547 2.7781249999999984
    vertex 84.72364713757325 94.32594515544253 2.7781249999999984
    vertex 85.23724118019855 93.4645792169848 2.7781249999999984
  endloop
endfacet
facet normal 0.0 0.0 -1.0
  outer loop
    vertex 85.23724118019855 93.4645792169848 2.7781249999999984
    vertex 84.72364713757325 94.32594515544253 2.7781249999999984
    vertex 85.23724118019855 94.2583292169849 2.7781249999999984
  endloop
endfacet
facet normal 0.0 0.0 -1.0
  outer loop
    vertex 85.23724118019855 93.4645792169848 2.7781249999999984
    vertex 85.23724118019855 94.2583292169849 2.7781249999999984
    vertex 85.75083522282387 94.32594515544255 2.7781249999999984
  endloop
endfacet
facet normal 0.0 0.0 -1.0
  outer loop
    vertex 85.23724118019855 93.4645792169848 2.7781249999999984
    vertex 85.75083522282387 94.32594515544255 2.7781249999999984
    vertex 85.95627283987399 93.55924153082547 2.7781249999999984
  endloop
endfacet
facet normal 0.0 0.0 -1.0
  outer loop
    vertex 85.95627283987399 93.55924153082547 2.7781249999999984
    vertex 85.75083522282387 94.32594515544255 2.7781249999999984
    vertex 86.22942868019855 94.52418505635018 2.7781249999999984
  endloop
endfacet
facet normal 0.0 0.0 -1.0
  outer loop
    vertex 85.95627283987399 93.55924153082547 2.7781249999999984
    vertex 86.22942868019855 94.52418505635018 2.7781249999999984
    vertex 86.62630368019856 93.83677739209615 2.7781249999999984
  endloop
endfacet
facet normal 0.0 0.0 -1.0
  outer loop
    vertex 86.62630368019856 93.83677739209615 2.7781249999999984
    vertex 86.22942868019855 94.52418505635018 2.7781249999999984
    vertex 86.64040619911562 94.83953919806785 2.7781249999999984
  endloop
endfacet
facet normal 0.0 0.0 -1.0
  outer loop
    vertex 86.62630368019856 93.83677739209615 2.7781249999999984
    vertex 86.64040619911562 94.83953919806785 2.7781249999999984
    vertex 87.20167220668243 94.27827319050093 2.7781249999999984
  endloop
endfacet
facet normal 0.0 0.0 -1.0
  outer loop
    vertex 87.20167220668243 94.27827319050093 2.7781249999999984
    vertex 86.64040619911562 94.83953919806785 2.7781249999999984
    vertex 86.95576034083331 95.25051671698485 2.7781249999999984
  endloop
endfacet
facet normal 0.0 0.0 -1.0
  outer loop
    vertex 87.20167220668243 94.27827319050093 2.7781249999999984
    vertex 86.95576034083331 95.25051671698485 2.7781249999999984
    vertex 87.15400024174093 95.72911017435952 2.7781249999999984
  endloop
endfacet
facet normal 0.0 0.0 -1.0
  outer loop
    vertex 87.20167220668243 94.27827319050093 2.7781249999999984
    vertex 87.15400024174093 95.72911017435952 2.7781249999999984
    vertex 87.22161618019855 96.2427042169848 2.7781249999999984
  endloop
endfacet
facet normal 0.0 0.0 -1.0
  outer loop
    vertex 87.20167220668243 94.27827319050093 2.7781249999999984
    vertex 87.22161618019855 96.2427042169848 2.7781249999999984
    vertex 87.6431680050872 94.8536417169848 2.7781249999999984
  endloop
endfacet
facet normal 0.0 0.0 -1.0
  outer loop
    vertex 87.6431680050872 94.8536417169848 2.7781249999999984
    vertex 87.22161618019855 96.2427042169848 2.7781249999999984
    vertex 87.6431680050872 97.6317667169848 2.7781249999999984
  endloop
endfacet
facet normal 0.0 0.0 -1.0
  outer loop
    vertex 87.6431680050872 94.8536417169848 2.7781249999999984
    vertex 87.6431680050872 97.6317667169848 2.7781249999999984
    vertex 87.92070386635788 96.96173587666021 2.7781249999999984
  endloop
endfacet
facet normal 0.0 0.0 -1.0
  outer loop
    vertex 87.6431680050872 94.8536417169848 2.7781249999999984
    vertex 87.92070386635788 96.96173587666021 2.7781249999999984
    vertex 87.92070386635788 95.52367255730937 2.7781249999999984
  endloop
endfacet
facet normal 0.0 0.0 -1.0
  outer loop
    vertex 87.92070386635788 95.52367255730937 2.7781249999999984
    vertex 87.92070386635788 96.96173587666021 2.7781249999999984
    vertex 88.01536618019855 96.24270421698482 2.7781249999999984
  endloop
endfacet
facet normal -0.0 -0.0 1.0
  outer loop
    vertex 82.55377849403924 95.52367255730937 5.95312500000001
    vertex 82.55377849403924 96.96173587666024 5.95312500000001
    vertex 82.45911618019855 96.2427042169848 5.95312500000001
  endloop
endfacet
facet normal -0.0 -0.0 1.0
  outer loop
    vertex 82.55377849403924 96.96173587666024 5.95312500000001
    vertex 82.55377849403924 95.52367255730937 5.95312500000001
    vertex 82.83131435530991 94.8536417169848 5.95312500000001
  endloop
endfacet
facet normal -0.0 -0.0 1.0
  outer loop
    vertex 82.55377849403924 96.96173587666024 5.95312500000001
    vertex 82.83131435530991 94.8536417169848 5.95312500000001
    vertex 82.83131435530991 97.6317667169848 5.95312500000001
  endloop
endfacet
facet normal -0.0 -0.0 1.0
  outer loop
    vertex 82.83131435530991 97.6317667169848 5.95312500000001
    vertex 82.83131435530991 94.8536417169848 5.95312500000001
    vertex 83.27281015371467 94.27827319050093 5.95312500000001
  endloop
endfacet
facet normal -0.0 -0.0 1.0
  outer loop
    vertex 82.83131435530991 97.6317667169848 5.95312500000001
    vertex 83.27281015371467 94.27827319050093 5.95312500000001
    vertex 83.27281015371467 98.20713524346868 5.95312500000001
  endloop
endfacet
facet normal -0.0 -0.0 1.0
  outer loop
    vertex 83.27281015371467 98.20713524346868 5.95312500000001
    vertex 83.27281015371467 94.27827319050093 5.95312500000001
    vertex 83.84817868019856 93.83677739209615 5.95312500000001
  endloop
endfacet
facet normal -0.0 -0.0 1.0
  outer loop
    vertex 83.27281015371467 98.20713524346868 5.95312500000001
    vertex 83.84817868019856 93.83677739209615 5.95312500000001
    vertex 83.84817868019856 98.64863104187346 5.95312500000001
  endloop
endfacet
facet normal -0.0 -0.0 1.0
  outer loop
    vertex 83.84817868019856 98.64863104187346 5.95312500000001
    vertex 83.84817868019856 93.83677739209615 5.95312500000001
    vertex 84.51820952052311 93.55924153082547 5.95312500000001
  endloop
endfacet
facet normal -0.0 -0.0 1.0
  outer loop
    vertex 83.84817868019856 98.64863104187346 5.95312500000001
    vertex 84.51820952052311 93.55924153082547 5.95312500000001
    vertex 84.51820952052311 98.92616690314412 5.95312500000001
  endloop
endfacet
facet normal -0.0 -0.0 1.0
  outer loop
    vertex 84.51820952052311 98.92616690314412 5.95312500000001
    vertex 84.51820952052311 93.55924153082547 5.95312500000001
    vertex 85.23724118019855 93.4645792169848 5.95312500000001
  endloop
endfacet
facet normal -0.0 -0.0 1.0
  outer loop
    vertex 84.51820952052311 98.92616690314412 5.95312500000001
    vertex 85.23724118019855 93.4645792169848 5.95312500000001
    vertex 85.23724118019855 99.02082921698481 5.95312500000001
  endloop
endfacet
facet normal -0.0 -0.0 1.0
  outer loop
    vertex 85.23724118019855 99.02082921698481 5.95312500000001
    vertex 85.23724118019855 93.4645792169848 5.95312500000001
    vertex 85.95627283987399 93.55924153082547 5.95312500000001
  endloop
endfacet
facet normal -0.0 -0.0 1.0
  outer loop
    vertex 85.23724118019855 99.02082921698481 5.95312500000001
    vertex 85.95627283987399 93.55924153082547 5.95312500000001
    vertex 85.95627283987399 98.92616690314412 5.95312500000001
  endloop
endfacet
facet normal -0.0 -0.0 1.0
  outer loop
    vertex 85.95627283987399 98.92616690314412 5.95312500000001
    vertex 85.95627283987399 93.55924153082547 5.95312500000001
    vertex 86.62630368019856 93.83677739209615 5.95312500000001
  endloop
endfacet
facet normal -0.0 -0.0 1.0
  outer loop
    vertex 85.95627283987399 98.92616690314412 5.95312500000001
    vertex 86.62630368019856 93.83677739209615 5.95312500000001
    vertex 86.62630368019856 98.64863104187346 5.95312500000001
  endloop
endfacet
facet normal -0.0 -0.0 1.0
  outer loop
    vertex 86.62630368019856 98.64863104187346 5.95312500000001
    vertex 86.62630368019856 93.83677739209615 5.95312500000001
    vertex 87.20167220668243 94.27827319050093 5.95312500000001
  endloop
endfacet
facet normal -0.0 -0.0 1.0
  outer loop
    vertex 86.62630368019856 98.64863104187346 5.95312500000001
    vertex 87.20167220668243 94.27827319050093 5.95312500000001
    vertex 87.20167220668243 98.20713524346868 5.95312500000001
  endloop
endfacet
facet normal -0.0 -0.0 1.0
  outer loop
    vertex 87.20167220668243 98.20713524346868 5.95312500000001
    vertex 87.20167220668243 94.27827319050093 5.95312500000001
    vertex 87.6431680050872 94.8536417169848 5.95312500000001
  endloop
endfacet
facet normal -0.0 -0.0 1.0
  outer loop
    vertex 87.20167220668243 98.20713524346868 5.95312500000001
    vertex 87.6431680050872 94.8536417169848 5.95312500000001
    vertex 87.6431680050872 97.6317667169848 5.95312500000001
  endloop
endfacet
facet normal -0.0 -0.0 1.0
  outer loop
    vertex 87.6431680050872 97.6317667169848 5.95312500000001
    vertex 87.6431680050872 94.8536417169848 5.95312500000001
    vertex 87.92070386635788 95.52367255730937 5.95312500000001
  endloop
endfacet
facet normal -0.0 -0.0 1.0
  outer loop
    vertex 87.6431680050872 97.6317667169848 5.95312500000001
    vertex 87.92070386635788 95.52367255730937 5.95312500000001
    vertex 87.92070386635788 96.96173587666024 5.95312500000001
  endloop
endfacet
facet normal -0.0 -0.0 1.0
  outer loop
    vertex 87.92070386635788 96.96173587666024 5.95312500000001
    vertex 87.92070386635788 95.52367255730937 5.95312500000001
    vertex 88.01536618019855 96.2427042169848 5.95312500000001
  endloop
endfacet
facet normal -0.7933533402912383 0.6087614290087169 0.0
  outer loop
    vertex 83.27281015371467 98.20713524346868 5.95312500000001
    vertex 82.83131435530991 97.6317667169848 3.175
    vertex 82.83131435530991 97.6317667169848 5.95312500000001
  endloop
endfacet
facet normal -0.7933533402912383 0.6087614290087169 0.0
  outer loop
    vertex 82.83131435530991 97.6317667169848 3.175
    vertex 83.27281015371467 98.20713524346868 5.95312500000001
    vertex 83.27281015371467 98.20713524346868 3.175
  endloop
endfacet
facet normal -0.9238795325112862 0.38268343236509117 0.0
  outer loop
    vertex 82.83131435530991 97.6317667169848 5.95312500000001
    vertex 82.55377849403924 96.96173587666024 3.175
    vertex 82.55377849403924 96.96173587666024 5.95312500000001
  endloop
endfacet
facet normal -0.9238795325112862 0.38268343236509117 0.0
  outer loop
    vertex 82.55377849403924 96.96173587666024 3.175
    vertex 82.83131435530991 97.6317667169848 5.95312500000001
    vertex 82.83131435530991 97.6317667169848 3.175
  endloop
endfacet
facet normal -0.9914448613738114 0.13052619222004494 0.0
  outer loop
    vertex 82.55377849403924 96.96173587666024 5.95312500000001
    vertex 82.45911618019855 96.2427042169848 3.175
    vertex 82.45911618019855 96.2427042169848 5.95312500000001
  endloop
endfacet
facet normal -0.9914448613738114 0.13052619222004494 0.0
  outer loop
    vertex 82.45911618019855 96.2427042169848 3.175
    vertex 82.55377849403924 96.96173587666024 5.95312500000001
    vertex 82.55377849403924 96.96173587666024 3.175
  endloop
endfacet
facet normal -0.9914448613738114 -0.13052619222004494 0.0
  outer loop
    vertex 82.45911618019855 96.2427042169848 5.95312500000001
    vertex 82.55377849403924 95.52367255730937 3.175
    vertex 82.55377849403924 95.52367255730937 5.95312500000001
  endloop
endfacet
facet normal -0.9914448613738114 -0.13052619222004494 0.0
  outer loop
    vertex 82.55377849403924 95.52367255730937 3.175
    vertex 82.45911618019855 96.2427042169848 5.95312500000001
    vertex 82.45911618019855 96.2427042169848 3.175
  endloop
endfacet
facet normal -0.9238795325112862 -0.38268343236509117 0.0
  outer loop
    vertex 82.55377849403924 95.52367255730937 5.95312500000001
    vertex 82.83131435530991 94.8536417169848 3.175
    vertex 82.83131435530991 94.8536417169848 5.95312500000001
  endloop
endfacet
facet normal -0.9238795325112862 -0.38268343236509117 0.0
  outer loop
    vertex 82.83131435530991 94.8536417169848 3.175
    vertex 82.55377849403924 95.52367255730937 5.95312500000001
    vertex 82.55377849403924 95.52367255730937 3.175
  endloop
endfacet
facet normal -0.7933533402912383 -0.6087614290087169 0.0
  outer loop
    vertex 82.83131435530991 94.8536417169848 5.95312500000001
    vertex 83.27281015371467 94.27827319050093 3.175
    vertex 83.27281015371467 94.27827319050093 5.95312500000001
  endloop
endfacet
facet normal -0.7933533402912383 -0.6087614290087169 0.0
  outer loop
    vertex 83.27281015371467 94.27827319050093 3.175
    vertex 82.83131435530991 94.8536417169848 5.95312500000001
    vertex 82.83131435530991 94.8536417169848 3.175
  endloop
endfacet
facet normal -0.6087614290087169 -0.7933533402912383 0.0
  outer loop
    vertex 83.84817868019856 93.83677739209615 5.95312500000001
    vertex 83.27281015371467 94.27827319050093 3.175
    vertex 83.84817868019856 93.83677739209615 3.175
  endloop
endfacet
facet normal -0.6087614290087169 -0.7933533402912383 0.0
  outer loop
    vertex 83.27281015371467 94.27827319050093 3.175
    vertex 83.84817868019856 93.83677739209615 5.95312500000001
    vertex 83.27281015371467 94.27827319050093 5.95312500000001
  endloop
endfacet
facet normal -0.38268343236509117 -0.9238795325112862 0.0
  outer loop
    vertex 84.51820952052311 93.55924153082547 5.95312500000001
    vertex 83.84817868019856 93.83677739209615 3.175
    vertex 84.51820952052311 93.55924153082547 3.175
  endloop
endfacet
facet normal -0.38268343236509117 -0.9238795325112862 0.0
  outer loop
    vertex 83.84817868019856 93.83677739209615 3.175
    vertex 84.51820952052311 93.55924153082547 5.95312500000001
    vertex 83.84817868019856 93.83677739209615 5.95312500000001
  endloop
endfacet
facet normal -0.13052619222004494 -0.9914448613738114 0.0
  outer loop
    vertex 85.23724118019855 93.4645792169848 5.95312500000001
    vertex 84.51820952052311 93.55924153082547 3.175
    vertex 85.23724118019855 93.4645792169848 3.175
  endloop
endfacet
facet normal -0.13052619222004494 -0.9914448613738114 0.0
  outer loop
    vertex 84.51820952052311 93.55924153082547 3.175
    vertex 85.23724118019855 93.4645792169848 5.95312500000001
    vertex 84.51820952052311 93.55924153082547 5.95312500000001
  endloop
endfacet
facet normal 0.13052619222004494 -0.9914448613738114 0.0
  outer loop
    vertex 85.95627283987399 93.55924153082547 5.95312500000001
    vertex 85.23724118019855 93.4645792169848 3.175
    vertex 85.95627283987399 93.55924153082547 3.175
  endloop
endfacet
facet normal 0.13052619222004494 -0.9914448613738114 0.0
  outer loop
    vertex 85.23724118019855 93.4645792169848 3.175
    vertex 85.95627283987399 93.55924153082547 5.95312500000001
    vertex 85.23724118019855 93.4645792169848 5.95312500000001
  endloop
endfacet
facet normal 0.38268343236509117 -0.9238795325112862 0.0
  outer loop
    vertex 86.62630368019856 93.83677739209615 5.95312500000001
    vertex 85.95627283987399 93.55924153082547 3.175
    vertex 86.62630368019856 93.83677739209615 3.175
  endloop
endfacet
facet normal 0.38268343236509117 -0.9238795325112862 0.0
  outer loop
    vertex 85.95627283987399 93.55924153082547 3.175
    vertex 86.62630368019856 93.83677739209615 5.95312500000001
    vertex 85.95627283987399 93.55924153082547 5.95312500000001
  endloop
endfacet
facet normal 0.6087614290087169 -0.7933533402912383 0.0
  outer loop
    vertex 87.20167220668243 94.27827319050093 5.95312500000001
    vertex 86.62630368019856 93.83677739209615 3.175
    vertex 87.20167220668243 94.27827319050093 3.175
  endloop
endfacet
facet normal 0.6087614290087169 -0.7933533402912383 0.0
  outer loop
    vertex 86.62630368019856 93.83677739209615 3.175
    vertex 87.20167220668243 94.27827319050093 5.95312500000001
    vertex 86.62630368019856 93.83677739209615 5.95312500000001
  endloop
endfacet
facet normal 0.7933533402912383 -0.6087614290087169 -0.0
  outer loop
    vertex 87.6431680050872 94.8536417169848 3.175
    vertex 87.20167220668243 94.27827319050093 5.95312500000001
    vertex 87.20167220668243 94.27827319050093 3.175
  endloop
endfacet
facet normal 0.7933533402912383 -0.6087614290087169 -0.0
  outer loop
    vertex 87.20167220668243 94.27827319050093 5.95312500000001
    vertex 87.6431680050872 94.8536417169848 3.175
    vertex 87.6431680050872 94.8536417169848 5.95312500000001
  endloop
endfacet
facet normal 0.9238795325112862 -0.38268343236509117 -0.0
  outer loop
    vertex 87.92070386635788 95.52367255730937 3.175
    vertex 87.6431680050872 94.8536417169848 5.95312500000001
    vertex 87.6431680050872 94.8536417169848 3.175
  endloop
endfacet
facet normal 0.9238795325112862 -0.38268343236509117 -0.0
  outer loop
    vertex 87.6431680050872 94.8536417169848 5.95312500000001
    vertex 87.92070386635788 95.52367255730937 3.175
    vertex 87.92070386635788 95.52367255730937 5.95312500000001
  endloop
endfacet
facet normal 0.9914448613738114 -0.13052619222004494 -0.0
  outer loop
    vertex 88.01536618019855 96.2427042169848 3.175
    vertex 87.92070386635788 95.52367255730937 5.95312500000001
    vertex 87.92070386635788 95.52367255730937 3.175
  endloop
endfacet
facet normal 0.9914448613738114 -0.13052619222004494 -0.0
  outer loop
    vertex 87.92070386635788 95.52367255730937 5.95312500000001
    vertex 88.01536618019855 96.2427042169848 3.175
    vertex 88.01536618019855 96.2427042169848 5.95312500000001
  endloop
endfacet
facet normal 0.9914448613738114 0.13052619222004494 -0.0
  outer loop
    vertex 87.92070386635788 96.96173587666024 3.175
    vertex 88.01536618019855 96.2427042169848 5.95312500000001
    vertex 88.01536618019855 96.2427042169848 3.175
  endloop
endfacet
facet normal 0.9914448613738114 0.13052619222004494 -0.0
  outer loop
    vertex 88.01536618019855 96.2427042169848 5.95312500000001
    vertex 87.92070386635788 96.96173587666024 3.175
    vertex 87.92070386635788 96.96173587666024 5.95312500000001
  endloop
endfacet
facet normal 0.9238795325112862 0.38268343236509117 -0.0
  outer loop
    vertex 87.6431680050872 97.6317667169848 3.175
    vertex 87.92070386635788 96.96173587666024 5.95312500000001
    vertex 87.92070386635788 96.96173587666024 3.175
  endloop
endfacet
facet normal 0.9238795325112862 0.38268343236509117 -0.0
  outer loop
    vertex 87.92070386635788 96.96173587666024 5.95312500000001
    vertex 87.6431680050872 97.6317667169848 3.175
    vertex 87.6431680050872 97.6317667169848 5.95312500000001
  endloop
endfacet
facet normal 0.7933533402912383 0.6087614290087169 -0.0
  outer loop
    vertex 87.20167220668243 98.20713524346868 3.175
    vertex 87.6431680050872 97.6317667169848 5.95312500000001
    vertex 87.6431680050872 97.6317667169848 3.175
  endloop
endfacet
facet normal 0.7933533402912383 0.6087614290087169 -0.0
  outer loop
    vertex 87.6431680050872 97.6317667169848 5.95312500000001
    vertex 87.20167220668243 98.20713524346868 3.175
    vertex 87.20167220668243 98.20713524346868 5.95312500000001
  endloop
endfacet
facet normal 0.6087614290087169 0.7933533402912383 -0.0
  outer loop
    vertex 86.62630368019856 98.64863104187346 5.95312500000001
    vertex 87.20167220668243 98.20713524346868 3.175
    vertex 86.62630368019856 98.64863104187346 3.175
  endloop
endfacet
facet normal 0.6087614290087169 0.7933533402912383 -0.0
  outer loop
    vertex 87.20167220668243 98.20713524346868 3.175
    vertex 86.62630368019856 98.64863104187346 5.95312500000001
    vertex 87.20167220668243 98.20713524346868 5.95312500000001
  endloop
endfacet
facet normal 0.38268343236509117 0.9238795325112862 -0.0
  outer loop
    vertex 85.95627283987399 98.92616690314412 5.95312500000001
    vertex 86.62630368019856 98.64863104187346 3.175
    vertex 85.95627283987399 98.92616690314412 3.175
  endloop
endfacet
facet normal 0.38268343236509117 0.9238795325112862 -0.0
  outer loop
    vertex 86.62630368019856 98.64863104187346 3.175
    vertex 85.95627283987399 98.92616690314412 5.95312500000001
    vertex 86.62630368019856 98.64863104187346 5.95312500000001
  endloop
endfacet
facet normal -0.7122348311705768 0.29501732666537345 -0.6369351004887674
  outer loop
    vertex 85.23724118019855 96.2427042169848 5.159375000000004
    vertex 87.15400024174093 95.72911017435952 2.7781249999999984
    vertex 86.95576034083331 95.25051671698485 2.7781249999999984
  endloop
endfacet
facet normal -0.764322120586525 0.10062491613650645 -0.6369351004887693
  outer loop
    vertex 87.22161618019855 96.2427042169848 2.7781249999999984
    vertex 87.15400024174093 95.72911017435952 2.7781249999999984
    vertex 85.23724118019855 96.2427042169848 5.159375000000004
  endloop
endfacet
facet normal -0.7643221205865258 -0.10062491613649953 -0.6369351004887697
  outer loop
    vertex 87.15400024174093 96.75629825961012 2.7781249999999984
    vertex 87.22161618019855 96.2427042169848 2.7781249999999984
    vertex 85.23724118019855 96.2427042169848 5.159375000000004
  endloop
endfacet
facet normal -0.7122348311705667 -0.2950173266653961 -0.6369351004887682
  outer loop
    vertex 86.95576034083331 97.23489171698475 2.7781249999999984
    vertex 87.15400024174093 96.75629825961012 2.7781249999999984
    vertex 85.23724118019855 96.2427042169848 5.159375000000004
  endloop
endfacet
facet normal 0.38268343236508673 -0.9238795325112881 -2.074136664762511e-15
  outer loop
    vertex 84.51820952052311 98.92616690314411 2.7781249999999984
    vertex 83.84817868019856 98.64863104187346 0.0
    vertex 84.51820952052311 98.92616690314412 0.0
  endloop
endfacet
facet normal 0.38268343236508673 -0.9238795325112881 -2.074136664762511e-15
  outer loop
    vertex 83.84817868019856 98.64863104187346 0.0
    vertex 84.51820952052311 98.92616690314411 2.7781249999999984
    vertex 83.84817868019856 98.64863104187344 2.7781249999999984
  endloop
endfacet
facet normal 0.6087614290087234 -0.7933533402912331 -2.3735219066734588e-15
  outer loop
    vertex 83.84817868019856 98.64863104187344 2.7781249999999984
    vertex 83.27281015371467 98.20713524346868 0.0
    vertex 83.84817868019856 98.64863104187346 0.0
  endloop
endfacet
facet normal 0.6087614290087234 -0.7933533402912331 -2.3735219066734588e-15
  outer loop
    vertex 83.27281015371467 98.20713524346868 0.0
    vertex 83.84817868019856 98.64863104187344 2.7781249999999984
    vertex 83.27281015371467 98.20713524346866 2.7781249999999984
  endloop
endfacet
facet normal 0.7933533402912324 -0.6087614290087245 -1.365950561662382e-15
  outer loop
    vertex 83.27281015371467 98.20713524346868 0.0
    vertex 82.83131435530991 97.6317667169848 2.7781249999999984
    vertex 82.83131435530991 97.6317667169848 0.0
  endloop
endfacet
facet normal 0.7933533402912324 -0.6087614290087245 -1.365950561662382e-15
  outer loop
    vertex 82.83131435530991 97.6317667169848 2.7781249999999984
    vertex 83.27281015371467 98.20713524346868 0.0
    vertex 83.27281015371467 98.20713524346866 2.7781249999999984
  endloop
endfacet
facet normal 0.9238795325112886 -0.38268343236508573 -8.57554356835656e-16
  outer loop
    vertex 82.55377849403924 96.96173587666024 0.0
    vertex 82.83131435530991 97.6317667169848 2.7781249999999984
    vertex 82.55377849403924 96.96173587666021 2.7781249999999984
  endloop
endfacet
facet normal 0.9238795325112886 -0.38268343236508573 -8.57554356835656e-16
  outer loop
    vertex 82.83131435530991 97.6317667169848 2.7781249999999984
    vertex 82.55377849403924 96.96173587666024 0.0
    vertex 82.83131435530991 97.6317667169848 0.0
  endloop
endfacet
facet normal 0.9914448613738109 -0.13052619222004763 -1.9563279829111813e-16
  outer loop
    vertex 82.55377849403924 96.96173587666024 0.0
    vertex 82.45911618019855 96.24270421698482 2.7781249999999984
    vertex 82.45911618019855 96.2427042169848 0.0
  endloop
endfacet
facet normal 0.9914448613738109 -0.13052619222004763 -1.9563279829111813e-16
  outer loop
    vertex 82.45911618019855 96.24270421698482 2.7781249999999984
    vertex 82.55377849403924 96.96173587666024 0.0
    vertex 82.55377849403924 96.96173587666021 2.7781249999999984
  endloop
endfacet
facet normal 0.9914448613738114 0.13052619222004425 -9.72443734195558e-17
  outer loop
    vertex 82.45911618019855 96.2427042169848 0.0
    vertex 82.55377849403924 95.52367255730937 2.7781249999999984
    vertex 82.55377849403924 95.52367255730937 0.0
  endloop
endfacet
facet normal 0.9914448613738114 0.13052619222004425 -9.72443734195558e-17
  outer loop
    vertex 82.55377849403924 95.52367255730937 2.7781249999999984
    vertex 82.45911618019855 96.2427042169848 0.0
    vertex 82.45911618019855 96.24270421698482 2.7781249999999984
  endloop
endfacet
facet normal -0.9238795325112891 -0.3826834323650845 -0.0
  outer loop
    vertex 81.97875077557653 95.36959434452177 3.175
    vertex 82.31575860711949 94.55598546698481 0.0
    vertex 82.31575860711949 94.55598546698481 3.175
  endloop
endfacet
facet normal -0.9238795325112891 -0.3826834323650845 -0.0
  outer loop
    vertex 82.31575860711949 94.55598546698481 0.0
    vertex 81.97875077557653 95.36959434452177 3.175
    vertex 81.97875077557653 95.36959434452177 0.0
  endloop
endfacet
facet normal -0.9914448613738103 -0.13052619222005382 -0.0
  outer loop
    vertex 81.86380368019856 96.2427042169848 3.175
    vertex 81.97875077557653 95.36959434452177 0.0
    vertex 81.97875077557653 95.36959434452177 3.175
  endloop
endfacet
facet normal -0.9914448613738103 -0.13052619222005382 -0.0
  outer loop
    vertex 81.97875077557653 95.36959434452177 0.0
    vertex 81.86380368019856 96.2427042169848 3.175
    vertex 81.86380368019856 96.2427042169848 0.0
  endloop
endfacet
facet normal -0.9914448613738103 0.13052619222005382 0.0
  outer loop
    vertex 81.97875077557653 97.11581408944784 3.175
    vertex 81.86380368019856 96.2427042169848 0.0
    vertex 81.86380368019856 96.2427042169848 3.175
  endloop
endfacet
facet normal -0.9914448613738103 0.13052619222005382 0.0
  outer loop
    vertex 81.86380368019856 96.2427042169848 0.0
    vertex 81.97875077557653 97.11581408944784 3.175
    vertex 81.97875077557653 97.11581408944784 0.0
  endloop
endfacet
facet normal -0.9238795325112891 0.3826834323650845 0.0
  outer loop
    vertex 82.31575860711949 97.9294229669848 3.175
    vertex 81.97875077557653 97.11581408944784 0.0
    vertex 81.97875077557653 97.11581408944784 3.175
  endloop
endfacet
facet normal -0.9238795325112891 0.3826834323650845 0.0
  outer loop
    vertex 81.97875077557653 97.11581408944784 0.0
    vertex 82.31575860711949 97.9294229669848 3.175
    vertex 82.31575860711949 97.9294229669848 0.0
  endloop
endfacet
facet normal -0.79335334029123 0.6087614290087275 0.0
  outer loop
    vertex 82.85186064803956 98.6280847491438 3.175
    vertex 82.31575860711949 97.9294229669848 0.0
    vertex 82.31575860711949 97.9294229669848 3.175
  endloop
endfacet
facet normal -0.79335334029123 0.6087614290087275 0.0
  outer loop
    vertex 82.31575860711949 97.9294229669848 0.0
    vertex 82.85186064803956 98.6280847491438 3.175
    vertex 82.85186064803956 98.6280847491438 0.0
  endloop
endfacet
facet normal -0.6087614290087275 0.79335334029123 0.0
  outer loop
    vertex 82.85186064803956 98.6280847491438 3.175
    vertex 83.55052243019855 99.16418679006388 0.0
    vertex 82.85186064803956 98.6280847491438 0.0
  endloop
endfacet
facet normal -0.6087614290087275 0.79335334029123 0.0
  outer loop
    vertex 83.55052243019855 99.16418679006388 0.0
    vertex 82.85186064803956 98.6280847491438 3.175
    vertex 83.55052243019855 99.16418679006388 3.175
  endloop
endfacet
facet normal -0.3826834323650845 0.9238795325112891 0.0
  outer loop
    vertex 83.55052243019855 99.16418679006388 3.175
    vertex 84.36413130773552 99.50119462160683 0.0
    vertex 83.55052243019855 99.16418679006388 0.0
  endloop
endfacet
facet normal -0.3826834323650845 0.9238795325112891 0.0
  outer loop
    vertex 84.36413130773552 99.50119462160683 0.0
    vertex 83.55052243019855 99.16418679006388 3.175
    vertex 84.36413130773552 99.50119462160683 3.175
  endloop
endfacet
facet normal -0.13052619222005382 0.9914448613738103 -0.0
  outer loop
    vertex 84.36413130773552 99.50119462160683 3.175
    vertex 85.23724118019855 99.6161417169848 0.0
    vertex 84.36413130773552 99.50119462160683 0.0
  endloop
endfacet
facet normal -0.13052619222005382 0.9914448613738103 -0.0
  outer loop
    vertex 85.23724118019855 99.6161417169848 0.0
    vertex 84.36413130773552 99.50119462160683 3.175
    vertex 85.23724118019855 99.6161417169848 3.175
  endloop
endfacet
facet normal 0.13052619222005382 0.9914448613738103 -0.0
  outer loop
    vertex 85.23724118019855 99.6161417169848 3.175
    vertex 86.11035105266158 99.50119462160683 0.0
    vertex 85.23724118019855 99.6161417169848 0.0
  endloop
endfacet
facet normal 0.13052619222005382 0.9914448613738103 -0.0
  outer loop
    vertex 86.11035105266158 99.50119462160683 0.0
    vertex 85.23724118019855 99.6161417169848 3.175
    vertex 86.11035105266158 99.50119462160683 3.175
  endloop
endfacet
facet normal 0.3826834323650845 0.9238795325112891 0.0
  outer loop
    vertex 86.11035105266158 99.50119462160683 3.175
    vertex 86.92395993019855 99.16418679006388 0.0
    vertex 86.11035105266158 99.50119462160683 0.0
  endloop
endfacet
facet normal 0.3826834323650845 0.9238795325112891 0.0
  outer loop
    vertex 86.92395993019855 99.16418679006388 0.0
    vertex 86.11035105266158 99.50119462160683 3.175
    vertex 86.92395993019855 99.16418679006388 3.175
  endloop
endfacet
facet normal 0.6087614290087275 0.79335334029123 0.0
  outer loop
    vertex 86.92395993019855 99.16418679006388 3.175
    vertex 87.62262171235754 98.6280847491438 0.0
    vertex 86.92395993019855 99.16418679006388 0.0
  endloop
endfacet
facet normal 0.6087614290087275 0.79335334029123 0.0
  outer loop
    vertex 87.62262171235754 98.6280847491438 0.0
    vertex 86.92395993019855 99.16418679006388 3.175
    vertex 87.62262171235754 98.6280847491438 3.175
  endloop
endfacet
facet normal 0.0 0.0 -1.0
  outer loop
    vertex 81.97875077557653 97.11581408944784 0.0
    vertex 81.97875077557653 95.36959434452177 0.0
    vertex 81.86380368019856 96.2427042169848 0.0
  endloop
endfacet
facet normal 0.0 0.0 -1.0
  outer loop
    vertex 81.97875077557653 95.36959434452177 0.0
    vertex 81.97875077557653 97.11581408944784 0.0
    vertex 82.31575860711949 97.9294229669848 0.0
  endloop
endfacet
facet normal 0.0 0.0 -1.0
  outer loop
    vertex 81.97875077557653 95.36959434452177 0.0
    vertex 82.31575860711949 97.9294229669848 0.0
    vertex 82.31575860711949 94.55598546698481 0.0
  endloop
endfacet
facet normal 0.0 0.0 -1.0
  outer loop
    vertex 82.31575860711949 94.55598546698481 0.0
    vertex 82.31575860711949 97.9294229669848 0.0
    vertex 82.45911618019855 96.2427042169848 0.0
  endloop
endfacet
facet normal 0.0 0.0 -1.0
  outer loop
    vertex 82.45911618019855 96.2427042169848 0.0
    vertex 82.31575860711949 97.9294229669848 0.0
    vertex 82.55377849403924 96.96173587666024 0.0
  endloop
endfacet
facet normal 0.0 0.0 -1.0
  outer loop
    vertex 82.55377849403924 96.96173587666024 0.0
    vertex 82.31575860711949 97.9294229669848 0.0
    vertex 82.85186064803956 98.6280847491438 0.0
  endloop
endfacet
facet normal 0.0 0.0 -1.0
  outer loop
    vertex 82.55377849403924 96.96173587666024 0.0
    vertex 82.85186064803956 98.6280847491438 0.0
    vertex 82.83131435530991 97.6317667169848 0.0
  endloop
endfacet
facet normal 0.0 0.0 -1.0
  outer loop
    vertex 82.83131435530991 97.6317667169848 0.0
    vertex 82.85186064803956 98.6280847491438 0.0
    vertex 83.27281015371467 98.20713524346868 0.0
  endloop
endfacet
facet normal 0.0 0.0 -1.0
  outer loop
    vertex 83.27281015371467 98.20713524346868 0.0
    vertex 82.85186064803956 98.6280847491438 0.0
    vertex 83.55052243019855 99.16418679006388 0.0
  endloop
endfacet
facet normal 0.0 0.0 -1.0
  outer loop
    vertex 83.27281015371467 98.20713524346868 0.0
    vertex 83.55052243019855 99.16418679006388 0.0
    vertex 83.84817868019856 98.64863104187346 0.0
  endloop
endfacet
facet normal 0.0 0.0 -1.0
  outer loop
    vertex 83.84817868019856 98.64863104187346 0.0
    vertex 83.55052243019855 99.16418679006388 0.0
    vertex 84.36413130773552 99.50119462160683 0.0
  endloop
endfacet
facet normal 0.0 0.0 -1.0
  outer loop
    vertex 83.84817868019856 98.64863104187346 0.0
    vertex 84.36413130773552 99.50119462160683 0.0
    vertex 84.51820952052311 98.92616690314412 0.0
  endloop
endfacet
facet normal 0.0 0.0 -1.0
  outer loop
    vertex 84.51820952052311 98.92616690314412 0.0
    vertex 84.36413130773552 99.50119462160683 0.0
    vertex 85.23724118019855 99.6161417169848 0.0
  endloop
endfacet
facet normal 0.0 0.0 -1.0
  outer loop
    vertex 84.51820952052311 98.92616690314412 0.0
    vertex 85.23724118019855 99.6161417169848 0.0
    vertex 85.23724118019855 99.02082921698481 0.0
  endloop
endfacet
facet normal 0.0 0.0 -1.0
  outer loop
    vertex 85.23724118019855 99.02082921698481 0.0
    vertex 85.23724118019855 99.6161417169848 0.0
    vertex 86.11035105266158 99.50119462160683 0.0
  endloop
endfacet
facet normal 0.0 0.0 -1.0
  outer loop
    vertex 85.23724118019855 99.02082921698481 0.0
    vertex 86.11035105266158 99.50119462160683 0.0
    vertex 85.95627283987399 98.92616690314412 0.0
  endloop
endfacet
facet normal 0.0 0.0 -1.0
  outer loop
    vertex 85.95627283987399 98.92616690314412 0.0
    vertex 86.11035105266158 99.50119462160683 0.0
    vertex 86.62630368019856 98.64863104187346 0.0
  endloop
endfacet
facet normal 0.0 0.0 -1.0
  outer loop
    vertex 86.62630368019856 98.64863104187346 0.0
    vertex 86.11035105266158 99.50119462160683 0.0
    vertex 86.92395993019855 99.16418679006388 0.0
  endloop
endfacet
facet normal 0.0 0.0 -1.0
  outer loop
    vertex 86.62630368019856 98.64863104187346 0.0
    vertex 86.92395993019855 99.16418679006388 0.0
    vertex 87.20167220668243 98.20713524346868 0.0
  endloop
endfacet
facet normal 0.0 0.0 -1.0
  outer loop
    vertex 87.20167220668243 98.20713524346868 0.0
    vertex 86.92395993019855 99.16418679006388 0.0
    vertex 87.62262171235754 98.6280847491438 0.0
  endloop
endfacet
facet normal 0.0 0.0 -1.0
  outer loop
    vertex 87.20167220668243 98.20713524346868 0.0
    vertex 87.62262171235754 98.6280847491438 0.0
    vertex 87.6431680050872 97.6317667169848 0.0
  endloop
endfacet
facet normal 0.0 0.0 -1.0
  outer loop
    vertex 87.6431680050872 97.6317667169848 0.0
    vertex 87.62262171235754 98.6280847491438 0.0
    vertex 88.15872375327763 97.9294229669848 0.0
  endloop
endfacet
facet normal 0.0 0.0 -1.0
  outer loop
    vertex 87.6431680050872 97.6317667169848 0.0
    vertex 88.15872375327763 97.9294229669848 0.0
    vertex 87.92070386635788 96.96173587666024 0.0
  endloop
endfacet
facet normal 0.0 0.0 -1.0
  outer loop
    vertex 87.92070386635788 96.96173587666024 0.0
    vertex 88.15872375327763 97.9294229669848 0.0
    vertex 88.01536618019855 96.2427042169848 0.0
  endloop
endfacet
facet normal 0.0 0.0 -1.0
  outer loop
    vertex 82.31575860711949 94.55598546698481 0.0
    vertex 82.55377849403924 95.52367255730937 0.0
    vertex 82.85186064803956 93.85732368482581 0.0
  endloop
endfacet
facet normal 0.0 0.0 -1.0
  outer loop
    vertex 82.55377849403924 95.52367255730937 0.0
    vertex 82.31575860711949 94.55598546698481 0.0
    vertex 82.45911618019855 96.2427042169848 0.0
  endloop
endfacet
facet normal 0.0 0.0 -1.0
  outer loop
    vertex 82.85186064803956 93.85732368482581 0.0
    vertex 82.55377849403924 95.52367255730937 0.0
    vertex 82.83131435530991 94.8536417169848 0.0
  endloop
endfacet
facet normal 0.0 0.0 -1.0
  outer loop
    vertex 82.85186064803956 93.85732368482581 0.0
    vertex 82.83131435530991 94.8536417169848 0.0
    vertex 83.27281015371467 94.27827319050093 0.0
  endloop
endfacet
facet normal 0.0 0.0 -1.0
  outer loop
    vertex 82.85186064803956 93.85732368482581 0.0
    vertex 83.27281015371467 94.27827319050093 0.0
    vertex 83.55052243019855 93.32122164390573 0.0
  endloop
endfacet
facet normal 0.0 0.0 -1.0
  outer loop
    vertex 83.55052243019855 93.32122164390573 0.0
    vertex 83.27281015371467 94.27827319050093 0.0
    vertex 83.84817868019856 93.83677739209615 0.0
  endloop
endfacet
facet normal 0.0 0.0 -1.0
  outer loop
    vertex 83.55052243019855 93.32122164390573 0.0
    vertex 83.84817868019856 93.83677739209615 0.0
    vertex 84.36413130773552 92.98421381236278 0.0
  endloop
endfacet
facet normal 0.0 0.0 -1.0
  outer loop
    vertex 84.36413130773552 92.98421381236278 0.0
    vertex 83.84817868019856 93.83677739209615 0.0
    vertex 84.51820952052311 93.55924153082547 0.0
  endloop
endfacet
facet normal 0.0 0.0 -1.0
  outer loop
    vertex 84.36413130773552 92.98421381236278 0.0
    vertex 84.51820952052311 93.55924153082547 0.0
    vertex 85.23724118019855 92.8692667169848 0.0
  endloop
endfacet
facet normal 0.0 0.0 -1.0
  outer loop
    vertex 85.23724118019855 92.8692667169848 0.0
    vertex 84.51820952052311 93.55924153082547 0.0
    vertex 85.23724118019855 93.4645792169848 0.0
  endloop
endfacet
facet normal 0.0 0.0 -1.0
  outer loop
    vertex 85.23724118019855 92.8692667169848 0.0
    vertex 85.23724118019855 93.4645792169848 0.0
    vertex 85.95627283987399 93.55924153082547 0.0
  endloop
endfacet
facet normal 0.0 0.0 -1.0
  outer loop
    vertex 85.23724118019855 92.8692667169848 0.0
    vertex 85.95627283987399 93.55924153082547 0.0
    vertex 86.11035105266158 92.98421381236278 0.0
  endloop
endfacet
facet normal 0.0 0.0 -1.0
  outer loop
    vertex 86.11035105266158 92.98421381236278 0.0
    vertex 85.95627283987399 93.55924153082547 0.0
    vertex 86.62630368019856 93.83677739209615 0.0
  endloop
endfacet
facet normal 0.0 0.0 -1.0
  outer loop
    vertex 86.11035105266158 92.98421381236278 0.0
    vertex 86.62630368019856 93.83677739209615 0.0
    vertex 86.92395993019855 93.32122164390573 0.0
  endloop
endfacet
facet normal 0.0 0.0 -1.0
  outer loop
    vertex 86.92395993019855 93.32122164390573 0.0
    vertex 86.62630368019856 93.83677739209615 0.0
    vertex 87.20167220668243 94.27827319050093 0.0
  endloop
endfacet
facet normal 0.0 0.0 -1.0
  outer loop
    vertex 86.92395993019855 93.32122164390573 0.0
    vertex 87.20167220668243 94.27827319050093 0.0
    vertex 87.62262171235754 93.85732368482581 0.0
  endloop
endfacet
facet normal 0.0 0.0 -1.0
  outer loop
    vertex 87.62262171235754 93.85732368482581 0.0
    vertex 87.20167220668243 94.27827319050093 0.0
    vertex 87.6431680050872 94.8536417169848 0.0
  endloop
endfacet
facet normal 0.0 0.0 -1.0
  outer loop
    vertex 87.62262171235754 93.85732368482581 0.0
    vertex 87.6431680050872 94.8536417169848 0.0
    vertex 88.15872375327763 94.55598546698481 0.0
  endloop
endfacet
facet normal 0.0 0.0 -1.0
  outer loop
    vertex 88.15872375327763 94.55598546698481 0.0
    vertex 87.6431680050872 94.8536417169848 0.0
    vertex 87.92070386635788 95.52367255730937 0.0
  endloop
endfacet
facet normal 0.0 0.0 -1.0
  outer loop
    vertex 88.15872375327763 94.55598546698481 0.0
    vertex 87.92070386635788 95.52367255730937 0.0
    vertex 88.01536618019855 96.2427042169848 0.0
  endloop
endfacet
facet normal 0.0 0.0 -1.0
  outer loop
    vertex 88.15872375327763 94.55598546698481 0.0
    vertex 88.01536618019855 96.2427042169848 0.0
    vertex 88.15872375327763 97.9294229669848 0.0
  endloop
endfacet
facet normal 0.0 0.0 -1.0
  outer loop
    vertex 88.15872375327763 94.55598546698481 0.0
    vertex 88.15872375327763 97.9294229669848 0.0
    vertex 88.49573158482058 97.11581408944784 0.0
  endloop
endfacet
facet normal 0.0 0.0 -1.0
  outer loop
    vertex 88.15872375327763 94.55598546698481 0.0
    vertex 88.49573158482058 97.11581408944784 0.0
    vertex 88.49573158482058 95.36959434452177 0.0
  endloop
endfacet
facet normal 0.0 0.0 -1.0
  outer loop
    vertex 88.49573158482058 95.36959434452177 0.0
    vertex 88.49573158482058 97.11581408944784 0.0
    vertex 88.61067868019856 96.2427042169848 0.0
  endloop
endfacet
facet normal -0.608761429008717 0.793353340291238 -4.044026037485923e-31
  outer loop
    vertex 86.62630368019856 93.83677739209615 2.7781249999999984
    vertex 87.20167220668243 94.27827319050093 0.0
    vertex 86.62630368019856 93.83677739209615 0.0
  endloop
endfacet
facet normal -0.608761429008717 0.793353340291238 -4.044026037485923e-31
  outer loop
    vertex 87.20167220668243 94.27827319050093 0.0
    vertex 86.62630368019856 93.83677739209615 2.7781249999999984
    vertex 87.20167220668243 94.27827319050093 2.7781249999999984
  endloop
endfacet
facet normal -0.793353340291238 0.608761429008717 1.4584580718450297e-30
  outer loop
    vertex 87.6431680050872 94.8536417169848 2.7781249999999984
    vertex 87.20167220668243 94.27827319050093 0.0
    vertex 87.20167220668243 94.27827319050093 2.7781249999999984
  endloop
endfacet
facet normal -0.793353340291238 0.608761429008717 1.4584580718450297e-30
  outer loop
    vertex 87.20167220668243 94.27827319050093 0.0
    vertex 87.6431680050872 94.8536417169848 2.7781249999999984
    vertex 87.6431680050872 94.8536417169848 0.0
  endloop
endfacet
facet normal -0.9238795325112862 0.38268343236509117 1.1180630467215041e-18
  outer loop
    vertex 87.92070386635788 95.52367255730937 2.7781249999999984
    vertex 87.6431680050872 94.8536417169848 0.0
    vertex 87.6431680050872 94.8536417169848 2.7781249999999984
  endloop
endfacet
facet normal -0.9238795325112862 0.38268343236509117 1.1180630467215041e-18
  outer loop
    vertex 87.6431680050872 94.8536417169848 0.0
    vertex 87.92070386635788 95.52367255730937 2.7781249999999984
    vertex 87.92070386635788 95.52367255730937 0.0
  endloop
endfacet
facet normal -0.9914448613738114 0.1305261922200443 -9.800707438755503e-17
  outer loop
    vertex 88.01536618019855 96.24270421698482 2.7781249999999984
    vertex 87.92070386635788 95.52367255730937 0.0
    vertex 87.92070386635788 95.52367255730937 2.7781249999999984
  endloop
endfacet
facet normal -0.9914448613738114 0.1305261922200443 -9.800707438755503e-17
  outer loop
    vertex 87.92070386635788 95.52367255730937 0.0
    vertex 88.01536618019855 96.24270421698482 2.7781249999999984
    vertex 88.01536618019855 96.2427042169848 0.0
  endloop
endfacet
facet normal -0.9914448613738109 -0.13052619222004766 -1.9487009732312193e-16
  outer loop
    vertex 88.01536618019855 96.24270421698482 2.7781249999999984
    vertex 87.92070386635788 96.96173587666024 0.0
    vertex 88.01536618019855 96.2427042169848 0.0
  endloop
endfacet
facet normal -0.9914448613738109 -0.13052619222004766 -1.9487009732312193e-16
  outer loop
    vertex 87.92070386635788 96.96173587666024 0.0
    vertex 88.01536618019855 96.24270421698482 2.7781249999999984
    vertex 87.92070386635788 96.96173587666021 2.7781249999999984
  endloop
endfacet
facet normal -0.9238795325112884 -0.3826834323650857 -8.59790482929101e-16
  outer loop
    vertex 87.6431680050872 97.6317667169848 2.7781249999999984
    vertex 87.92070386635788 96.96173587666024 0.0
    vertex 87.92070386635788 96.96173587666021 2.7781249999999984
  endloop
endfacet
facet normal -0.9238795325112884 -0.3826834323650857 -8.59790482929101e-16
  outer loop
    vertex 87.92070386635788 96.96173587666024 0.0
    vertex 87.6431680050872 97.6317667169848 2.7781249999999984
    vertex 87.6431680050872 97.6317667169848 0.0
  endloop
endfacet
facet normal -0.7933533402912324 -0.6087614290087245 -1.365950561662382e-15
  outer loop
    vertex 87.20167220668243 98.20713524346866 2.7781249999999984
    vertex 87.6431680050872 97.6317667169848 0.0
    vertex 87.6431680050872 97.6317667169848 2.7781249999999984
  endloop
endfacet
facet normal -0.7933533402912324 -0.6087614290087245 -1.365950561662382e-15
  outer loop
    vertex 87.6431680050872 97.6317667169848 0.0
    vertex 87.20167220668243 98.20713524346866 2.7781249999999984
    vertex 87.20167220668243 98.20713524346868 0.0
  endloop
endfacet
facet normal -0.6087614290087233 -0.7933533402912331 -2.3735219066734607e-15
  outer loop
    vertex 87.20167220668243 98.20713524346866 2.7781249999999984
    vertex 86.62630368019856 98.64863104187346 0.0
    vertex 87.20167220668243 98.20713524346868 0.0
  endloop
endfacet
facet normal -0.6087614290087233 -0.7933533402912331 -2.3735219066734607e-15
  outer loop
    vertex 86.62630368019856 98.64863104187346 0.0
    vertex 87.20167220668243 98.20713524346866 2.7781249999999984
    vertex 86.62630368019856 98.64863104187344 2.7781249999999984
  endloop
endfacet
facet normal -0.38268343236508673 -0.9238795325112881 -2.0719005386690677e-15
  outer loop
    vertex 86.62630368019856 98.64863104187344 2.7781249999999984
    vertex 85.95627283987399 98.92616690314412 0.0
    vertex 86.62630368019856 98.64863104187346 0.0
  endloop
endfacet
facet normal -0.38268343236508673 -0.9238795325112881 -2.0719005386690677e-15
  outer loop
    vertex 85.95627283987399 98.92616690314412 0.0
    vertex 86.62630368019856 98.64863104187344 2.7781249999999984
    vertex 85.95627283987399 98.92616690314411 2.7781249999999984
  endloop
endfacet
facet normal -0.13052619222006026 -0.9914448613738094 -7.419223443322523e-16
  outer loop
    vertex 85.95627283987399 98.92616690314411 2.7781249999999984
    vertex 85.23724118019855 99.02082921698481 0.0
    vertex 85.95627283987399 98.92616690314412 0.0
  endloop
endfacet
facet normal -0.13052619222006026 -0.9914448613738094 -7.419223443322523e-16
  outer loop
    vertex 85.23724118019855 99.02082921698481 0.0
    vertex 85.95627283987399 98.92616690314411 2.7781249999999984
    vertex 85.23724118019855 99.02082921698481 2.7781249999999984
  endloop
endfacet
facet normal 0.13052619222006026 -0.9914448613738094 -7.411596433642542e-16
  outer loop
    vertex 85.23724118019855 99.02082921698481 2.7781249999999984
    vertex 84.51820952052311 98.92616690314412 0.0
    vertex 85.23724118019855 99.02082921698481 0.0
  endloop
endfacet
facet normal 0.13052619222006026 -0.9914448613738094 -7.411596433642542e-16
  outer loop
    vertex 84.51820952052311 98.92616690314412 0.0
    vertex 85.23724118019855 99.02082921698481 2.7781249999999984
    vertex 84.51820952052311 98.92616690314411 2.7781249999999984
  endloop
endfacet
facet normal 0.13052619222005382 -0.9914448613738103 0.0
  outer loop
    vertex 86.11035105266158 92.98421381236278 3.175
    vertex 85.23724118019855 92.8692667169848 0.0
    vertex 86.11035105266158 92.98421381236278 0.0
  endloop
endfacet
facet normal 0.13052619222005382 -0.9914448613738103 0.0
  outer loop
    vertex 85.23724118019855 92.8692667169848 0.0
    vertex 86.11035105266158 92.98421381236278 3.175
    vertex 85.23724118019855 92.8692667169848 3.175
  endloop
endfacet
facet normal -0.13052619222005382 -0.9914448613738103 -0.0
  outer loop
    vertex 85.23724118019855 92.8692667169848 3.175
    vertex 84.36413130773552 92.98421381236278 0.0
    vertex 85.23724118019855 92.8692667169848 0.0
  endloop
endfacet
facet normal -0.13052619222005382 -0.9914448613738103 -0.0
  outer loop
    vertex 84.36413130773552 92.98421381236278 0.0
    vertex 85.23724118019855 92.8692667169848 3.175
    vertex 84.36413130773552 92.98421381236278 3.175
  endloop
endfacet
facet normal -0.3826834323650845 -0.9238795325112891 -0.0
  outer loop
    vertex 84.36413130773552 92.98421381236278 3.175
    vertex 83.55052243019855 93.32122164390573 0.0
    vertex 84.36413130773552 92.98421381236278 0.0
  endloop
endfacet
facet normal -0.3826834323650845 -0.9238795325112891 -0.0
  outer loop
    vertex 83.55052243019855 93.32122164390573 0.0
    vertex 84.36413130773552 92.98421381236278 3.175
    vertex 83.55052243019855 93.32122164390573 3.175
  endloop
endfacet
facet normal -0.6087614290087275 -0.79335334029123 -0.0
  outer loop
    vertex 83.55052243019855 93.32122164390573 3.175
    vertex 82.85186064803956 93.85732368482581 0.0
    vertex 83.55052243019855 93.32122164390573 0.0
  endloop
endfacet
facet normal -0.6087614290087275 -0.79335334029123 -0.0
  outer loop
    vertex 82.85186064803956 93.85732368482581 0.0
    vertex 83.55052243019855 93.32122164390573 3.175
    vertex 82.85186064803956 93.85732368482581 3.175
  endloop
endfacet
facet normal -0.79335334029123 -0.6087614290087275 -0.0
  outer loop
    vertex 82.31575860711949 94.55598546698481 3.175
    vertex 82.85186064803956 93.85732368482581 0.0
    vertex 82.85186064803956 93.85732368482581 3.175
  endloop
endfacet
facet normal -0.79335334029123 -0.6087614290087275 -0.0
  outer loop
    vertex 82.85186064803956 93.85732368482581 0.0
    vertex 82.31575860711949 94.55598546698481 3.175
    vertex 82.31575860711949 94.55598546698481 0.0
  endloop
endfacet
facet normal 0.46930479392117586 0.6116099150340712 -0.6369351004887539
  outer loop
    vertex 85.23724118019855 96.2427042169848 5.159375000000004
    vertex 84.24505368019855 94.52418505635015 2.7781249999999984
    vertex 83.83407616128149 94.83953919806785 2.7781249999999984
  endloop
endfacet
facet normal 0.10062491613650436 0.7643221205865414 -0.6369351004887502
  outer loop
    vertex 85.23724118019855 96.2427042169848 5.159375000000004
    vertex 85.23724118019855 94.2583292169849 2.7781249999999984
    vertex 84.72364713757325 94.32594515544253 2.7781249999999984
  endloop
endfacet
facet normal 0.7122348311705768 0.29501732666537345 -0.6369351004887674
  outer loop
    vertex 85.23724118019855 96.2427042169848 5.159375000000004
    vertex 83.5187220195638 95.25051671698485 2.7781249999999984
    vertex 83.32048211865617 95.72911017435952 2.7781249999999984
  endloop
endfacet
facet normal 0.6116099150340397 0.4693047939212069 -0.6369351004887612
  outer loop
    vertex 85.23724118019855 96.2427042169848 5.159375000000004
    vertex 83.83407616128149 94.83953919806785 2.7781249999999984
    vertex 83.5187220195638 95.25051671698485 2.7781249999999984
  endloop
endfacet
facet normal 0.2950173266653687 0.7122348311705928 -0.6369351004887517
  outer loop
    vertex 85.23724118019855 96.2427042169848 5.159375000000004
    vertex 84.72364713757325 94.32594515544253 2.7781249999999984
    vertex 84.24505368019855 94.52418505635015 2.7781249999999984
  endloop
endfacet
facet normal -0.10062491613653697 0.7643221205865387 -0.6369351004887479
  outer loop
    vertex 85.23724118019855 96.2427042169848 5.159375000000004
    vertex 85.75083522282387 94.32594515544255 2.7781249999999984
    vertex 85.23724118019855 94.2583292169849 2.7781249999999984
  endloop
endfacet
facet normal -0.295017326665368 0.7122348311705968 -0.6369351004887477
  outer loop
    vertex 85.23724118019855 96.2427042169848 5.159375000000004
    vertex 86.22942868019855 94.52418505635018 2.7781249999999984
    vertex 85.75083522282387 94.32594515544255 2.7781249999999984
  endloop
endfacet
facet normal -0.4693047939211569 0.6116099150340879 -0.6369351004887518
  outer loop
    vertex 86.64040619911562 94.83953919806785 2.7781249999999984
    vertex 86.22942868019855 94.52418505635018 2.7781249999999984
    vertex 85.23724118019855 96.2427042169848 5.159375000000004
  endloop
endfacet
facet normal -0.6116099150340397 0.4693047939212069 -0.6369351004887612
  outer loop
    vertex 86.95576034083331 95.25051671698485 2.7781249999999984
    vertex 86.64040619911562 94.83953919806785 2.7781249999999984
    vertex 85.23724118019855 96.2427042169848 5.159375000000004
  endloop
endfacet
facet normal -0.0 -0.0 1.0
  outer loop
    vertex 81.97875077557653 95.36959434452177 3.175
    vertex 81.97875077557653 97.11581408944784 3.175
    vertex 81.86380368019856 96.2427042169848 3.175
  endloop
endfacet
facet normal -0.0 -0.0 1.0
  outer loop
    vertex 81.97875077557653 97.11581408944784 3.175
    vertex 81.97875077557653 95.36959434452177 3.175
    vertex 82.31575860711949 94.55598546698481 3.175
  endloop
endfacet
facet normal -0.0 -0.0 1.0
  outer loop
    vertex 81.97875077557653 97.11581408944784 3.175
    vertex 82.31575860711949 94.55598546698481 3.175
    vertex 82.31575860711949 97.9294229669848 3.175
  endloop
endfacet
facet normal -0.0 -0.0 1.0
  outer loop
    vertex 82.31575860711949 97.9294229669848 3.175
    vertex 82.31575860711949 94.55598546698481 3.175
    vertex 82.45911618019855 96.2427042169848 3.175
  endloop
endfacet
facet normal -0.0 -0.0 1.0
  outer loop
    vertex 82.45911618019855 96.2427042169848 3.175
    vertex 82.31575860711949 94.55598546698481 3.175
    vertex 82.55377849403924 95.52367255730937 3.175
  endloop
endfacet
facet normal -0.0 -0.0 1.0
  outer loop
    vertex 82.55377849403924 95.52367255730937 3.175
    vertex 82.31575860711949 94.55598546698481 3.175
    vertex 82.85186064803956 93.85732368482581 3.175
  endloop
endfacet
facet normal -0.0 -0.0 1.0
  outer loop
    vertex 82.55377849403924 95.52367255730937 3.175
    vertex 82.85186064803956 93.85732368482581 3.175
    vertex 82.83131435530991 94.8536417169848 3.175
  endloop
endfacet
facet normal -0.0 -0.0 1.0
  outer loop
    vertex 82.83131435530991 94.8536417169848 3.175
    vertex 82.85186064803956 93.85732368482581 3.175
    vertex 83.27281015371467 94.27827319050093 3.175
  endloop
endfacet
facet normal -0.0 -0.0 1.0
  outer loop
    vertex 83.27281015371467 94.27827319050093 3.175
    vertex 82.85186064803956 93.85732368482581 3.175
    vertex 83.55052243019855 93.32122164390573 3.175
  endloop
endfacet
facet normal -0.0 -0.0 1.0
  outer loop
    vertex 83.27281015371467 94.27827319050093 3.175
    vertex 83.55052243019855 93.32122164390573 3.175
    vertex 83.84817868019856 93.83677739209615 3.175
  endloop
endfacet
facet normal -0.0 -0.0 1.0
  outer loop
    vertex 83.84817868019856 93.83677739209615 3.175
    vertex 83.55052243019855 93.32122164390573 3.175
    vertex 84.36413130773552 92.98421381236278 3.175
  endloop
endfacet
facet normal -0.0 -0.0 1.0
  outer loop
    vertex 83.84817868019856 93.83677739209615 3.175
    vertex 84.36413130773552 92.98421381236278 3.175
    vertex 84.51820952052311 93.55924153082547 3.175
  endloop
endfacet
facet normal -0.0 -0.0 1.0
  outer loop
    vertex 84.51820952052311 93.55924153082547 3.175
    vertex 84.36413130773552 92.98421381236278 3.175
    vertex 85.23724118019855 92.8692667169848 3.175
  endloop
endfacet
facet normal -0.0 -0.0 1.0
  outer loop
    vertex 84.51820952052311 93.55924153082547 3.175
    vertex 85.23724118019855 92.8692667169848 3.175
    vertex 85.23724118019855 93.4645792169848 3.175
  endloop
endfacet
facet normal -0.0 -0.0 1.0
  outer loop
    vertex 85.23724118019855 93.4645792169848 3.175
    vertex 85.23724118019855 92.8692667169848 3.175
    vertex 86.11035105266158 92.98421381236278 3.175
  endloop
endfacet
facet normal -0.0 -0.0 1.0
  outer loop
    vertex 85.23724118019855 93.4645792169848 3.175
    vertex 86.11035105266158 92.98421381236278 3.175
    vertex 85.95627283987399 93.55924153082547 3.175
  endloop
endfacet
facet normal -0.0 -0.0 1.0
  outer loop
    vertex 85.95627283987399 93.55924153082547 3.175
    vertex 86.11035105266158 92.98421381236278 3.175
    vertex 86.62630368019856 93.83677739209615 3.175
  endloop
endfacet
facet normal -0.0 -0.0 1.0
  outer loop
    vertex 86.62630368019856 93.83677739209615 3.175
    vertex 86.11035105266158 92.98421381236278 3.175
    vertex 86.92395993019855 93.32122164390573 3.175
  endloop
endfacet
facet normal -0.0 -0.0 1.0
  outer loop
    vertex 86.62630368019856 93.83677739209615 3.175
    vertex 86.92395993019855 93.32122164390573 3.175
    vertex 87.20167220668243 94.27827319050093 3.175
  endloop
endfacet
facet normal -0.0 -0.0 1.0
  outer loop
    vertex 87.20167220668243 94.27827319050093 3.175
    vertex 86.92395993019855 93.32122164390573 3.175
    vertex 87.62262171235754 93.85732368482581 3.175
  endloop
endfacet
facet normal -0.0 -0.0 1.0
  outer loop
    vertex 87.20167220668243 94.27827319050093 3.175
    vertex 87.62262171235754 93.85732368482581 3.175
    vertex 87.6431680050872 94.8536417169848 3.175
  endloop
endfacet
facet normal -0.0 -0.0 1.0
  outer loop
    vertex 87.6431680050872 94.8536417169848 3.175
    vertex 87.62262171235754 93.85732368482581 3.175
    vertex 88.15872375327763 94.55598546698481 3.175
  endloop
endfacet
facet normal -0.0 -0.0 1.0
  outer loop
    vertex 87.6431680050872 94.8536417169848 3.175
    vertex 88.15872375327763 94.55598546698481 3.175
    vertex 87.92070386635788 95.52367255730937 3.175
  endloop
endfacet
facet normal -0.0 -0.0 1.0
  outer loop
    vertex 87.92070386635788 95.52367255730937 3.175
    vertex 88.15872375327763 94.55598546698481 3.175
    vertex 88.01536618019855 96.2427042169848 3.175
  endloop
endfacet
facet normal -0.0 -0.0 1.0
  outer loop
    vertex 82.31575860711949 97.9294229669848 3.175
    vertex 82.55377849403924 96.96173587666024 3.175
    vertex 82.85186064803956 98.6280847491438 3.175
  endloop
endfacet
facet normal -0.0 -0.0 1.0
  outer loop
    vertex 82.55377849403924 96.96173587666024 3.175
    vertex 82.31575860711949 97.9294229669848 3.175
    vertex 82.45911618019855 96.2427042169848 3.175
  endloop
endfacet
facet normal -0.0 -0.0 1.0
  outer loop
    vertex 82.85186064803956 98.6280847491438 3.175
    vertex 82.55377849403924 96.96173587666024 3.175
    vertex 82.83131435530991 97.6317667169848 3.175
  endloop
endfacet
facet normal -0.0 -0.0 1.0
  outer loop
    vertex 82.85186064803956 98.6280847491438 3.175
    vertex 82.83131435530991 97.6317667169848 3.175
    vertex 83.27281015371467 98.20713524346868 3.175
  endloop
endfacet
facet normal -0.0 -0.0 1.0
  outer loop
    vertex 82.85186064803956 98.6280847491438 3.175
    vertex 83.27281015371467 98.20713524346868 3.175
    vertex 83.55052243019855 99.16418679006388 3.175
  endloop
endfacet
facet normal -0.0 -0.0 1.0
  outer loop
    vertex 83.55052243019855 99.16418679006388 3.175
    vertex 83.27281015371467 98.20713524346868 3.175
    vertex 83.84817868019856 98.64863104187346 3.175
  endloop
endfacet
facet normal -0.0 -0.0 1.0
  outer loop
    vertex 83.55052243019855 99.16418679006388 3.175
    vertex 83.84817868019856 98.64863104187346 3.175
    vertex 84.36413130773552 99.50119462160683 3.175
  endloop
endfacet
facet normal -0.0 -0.0 1.0
  outer loop
    vertex 84.36413130773552 99.50119462160683 3.175
    vertex 83.84817868019856 98.64863104187346 3.175
    vertex 84.51820952052311 98.92616690314412 3.175
  endloop
endfacet
facet normal -0.0 -0.0 1.0
  outer loop
    vertex 84.36413130773552 99.50119462160683 3.175
    vertex 84.51820952052311 98.92616690314412 3.175
    vertex 85.23724118019855 99.6161417169848 3.175
  endloop
endfacet
facet normal -0.0 -0.0 1.0
  outer loop
    vertex 85.23724118019855 99.6161417169848 3.175
    vertex 84.51820952052311 98.92616690314412 3.175
    vertex 85.23724118019855 99.02082921698481 3.175
  endloop
endfacet
facet normal -0.0 -0.0 1.0
  outer loop
    vertex 85.23724118019855 99.6161417169848 3.175
    vertex 85.23724118019855 99.02082921698481 3.175
    vertex 85.95627283987399 98.92616690314412 3.175
  endloop
endfacet
facet normal -0.0 -0.0 1.0
  outer loop
    vertex 85.23724118019855 99.6161417169848 3.175
    vertex 85.95627283987399 98.92616690314412 3.175
    vertex 86.11035105266158 99.50119462160683 3.175
  endloop
endfacet
facet normal -0.0 -0.0 1.0
  outer loop
    vertex 86.11035105266158 99.50119462160683 3.175
    vertex 85.95627283987399 98.92616690314412 3.175
    vertex 86.62630368019856 98.64863104187346 3.175
  endloop
endfacet
facet normal -0.0 -0.0 1.0
  outer loop
    vertex 86.11035105266158 99.50119462160683 3.175
    vertex 86.62630368019856 98.64863104187346 3.175
    vertex 86.92395993019855 99.16418679006388 3.175
  endloop
endfacet
facet normal -0.0 -0.0 1.0
  outer loop
    vertex 86.92395993019855 99.16418679006388 3.175
    vertex 86.62630368019856 98.64863104187346 3.175
    vertex 87.20167220668243 98.20713524346868 3.175
  endloop
endfacet
facet normal -0.0 -0.0 1.0
  outer loop
    vertex 86.92395993019855 99.16418679006388 3.175
    vertex 87.20167220668243 98.20713524346868 3.175
    vertex 87.62262171235754 98.6280847491438 3.175
  endloop
endfacet
facet normal -0.0 -0.0 1.0
  outer loop
    vertex 87.62262171235754 98.6280847491438 3.175
    vertex 87.20167220668243 98.20713524346868 3.175
    vertex 87.6431680050872 97.6317667169848 3.175
  endloop
endfacet
facet normal -0.0 -0.0 1.0
  outer loop
    vertex 87.62262171235754 98.6280847491438 3.175
    vertex 87.6431680050872 97.6317667169848 3.175
    vertex 88.15872375327763 97.9294229669848 3.175
  endloop
endfacet
facet normal -0.0 -0.0 1.0
  outer loop
    vertex 88.15872375327763 97.9294229669848 3.175
    vertex 87.6431680050872 97.6317667169848 3.175
    vertex 87.92070386635788 96.96173587666024 3.175
  endloop
endfacet
facet normal -0.0 -0.0 1.0
  outer loop
    vertex 88.15872375327763 97.9294229669848 3.175
    vertex 87.92070386635788 96.96173587666024 3.175
    vertex 88.01536618019855 96.2427042169848 3.175
  endloop
endfacet
facet normal -0.0 -0.0 1.0
  outer loop
    vertex 88.15872375327763 97.9294229669848 3.175
    vertex 88.01536618019855 96.2427042169848 3.175
    vertex 88.15872375327763 94.55598546698481 3.175
  endloop
endfacet
facet normal -0.0 -0.0 1.0
  outer loop
    vertex 88.15872375327763 97.9294229669848 3.175
    vertex 88.15872375327763 94.55598546698481 3.175
    vertex 88.49573158482058 95.36959434452177 3.175
  endloop
endfacet
facet normal -0.0 -0.0 1.0
  outer loop
    vertex 88.15872375327763 97.9294229669848 3.175
    vertex 88.49573158482058 95.36959434452177 3.175
    vertex 88.49573158482058 97.11581408944784 3.175
  endloop
endfacet
facet normal -0.0 -0.0 1.0
  outer loop
    vertex 88.49573158482058 97.11581408944784 3.175
    vertex 88.49573158482058 95.36959434452177 3.175
    vertex 88.61067868019856 96.2427042169848 3.175
  endloop
endfacet
facet normal -0.6116099150341036 -0.4693047939211159 -0.6369351004887671
  outer loop
    vertex 86.95576034083331 97.23489171698475 2.7781249999999984
    vertex 85.23724118019855 96.2427042169848 5.159375000000004
    vertex 86.64040619911562 97.64586923590186 2.7781249999999984
  endloop
endfacet
facet normal -0.469304793921147 -0.6116099150340775 -0.636935100488769
  outer loop
    vertex 86.64040619911562 97.64586923590186 2.7781249999999984
    vertex 85.23724118019855 96.2427042169848 5.159375000000004
    vertex 86.22942868019855 97.96122337761955 2.7781249999999984
  endloop
endfacet
facet normal -0.2950173266652502 -0.7122348311706346 -0.6369351004887599
  outer loop
    vertex 85.23724118019855 96.2427042169848 5.159375000000004
    vertex 85.75083522282387 98.15946327852708 2.7781249999999984
    vertex 86.22942868019855 97.96122337761955 2.7781249999999984
  endloop
endfacet
facet normal -0.10062491613653703 -0.764322120586535 -0.6369351004887523
  outer loop
    vertex 85.23724118019855 96.2427042169848 5.159375000000004
    vertex 85.23724118019855 98.22707921698472 2.7781249999999984
    vertex 85.75083522282387 98.15946327852708 2.7781249999999984
  endloop
endfacet
facet normal 0.10062491613653676 -0.7643221205865351 -0.6369351004887522
  outer loop
    vertex 85.23724118019855 96.2427042169848 5.159375000000004
    vertex 84.72364713757325 98.15946327852708 2.7781249999999984
    vertex 85.23724118019855 98.22707921698472 2.7781249999999984
  endloop
endfacet
facet normal 0.2950173266652493 -0.7122348311706351 -0.6369351004887599
  outer loop
    vertex 85.23724118019855 96.2427042169848 5.159375000000004
    vertex 84.24505368019855 97.96122337761955 2.7781249999999984
    vertex 84.72364713757325 98.15946327852708 2.7781249999999984
  endloop
endfacet
facet normal 0.46930479392114716 -0.6116099150340775 -0.636935100488769
  outer loop
    vertex 85.23724118019855 96.2427042169848 5.159375000000004
    vertex 83.83407616128149 97.64586923590186 2.7781249999999984
    vertex 84.24505368019855 97.96122337761955 2.7781249999999984
  endloop
endfacet
facet normal 0.6116099150341036 -0.4693047939211159 -0.6369351004887671
  outer loop
    vertex 85.23724118019855 96.2427042169848 5.159375000000004
    vertex 83.5187220195638 97.23489171698475 2.7781249999999984
    vertex 83.83407616128149 97.64586923590186 2.7781249999999984
  endloop
endfacet
facet normal 0.7122348311705545 -0.29501732666542235 -0.6369351004887698
  outer loop
    vertex 83.5187220195638 97.23489171698475 2.7781249999999984
    vertex 85.23724118019855 96.2427042169848 5.159375000000004
    vertex 83.32048211865617 96.75629825961018 2.7781249999999984
  endloop
endfacet
facet normal 0.7643221205865246 -0.10062491613649988 -0.6369351004887708
  outer loop
    vertex 83.32048211865617 96.75629825961018 2.7781249999999984
    vertex 85.23724118019855 96.2427042169848 5.159375000000004
    vertex 83.25286618019855 96.24270421698485 2.7781249999999984
  endloop
endfacet
facet normal 0.7643221205865268 0.10062491613649766 -0.6369351004887688
  outer loop
    vertex 83.25286618019855 96.24270421698485 2.7781249999999984
    vertex 85.23724118019855 96.2427042169848 5.159375000000004
    vertex 83.32048211865617 95.72911017435952 2.7781249999999984
  endloop
endfacet
facet normal 0.79335334029123 0.6087614290087275 0.0
  outer loop
    vertex 87.62262171235754 98.6280847491438 0.0
    vertex 88.15872375327763 97.9294229669848 3.175
    vertex 88.15872375327763 97.9294229669848 0.0
  endloop
endfacet
facet normal 0.79335334029123 0.6087614290087275 0.0
  outer loop
    vertex 88.15872375327763 97.9294229669848 3.175
    vertex 87.62262171235754 98.6280847491438 0.0
    vertex 87.62262171235754 98.6280847491438 3.175
  endloop
endfacet
facet normal 0.9238795325112891 0.3826834323650845 0.0
  outer loop
    vertex 88.15872375327763 97.9294229669848 0.0
    vertex 88.49573158482058 97.11581408944784 3.175
    vertex 88.49573158482058 97.11581408944784 0.0
  endloop
endfacet
facet normal 0.9238795325112891 0.3826834323650845 0.0
  outer loop
    vertex 88.49573158482058 97.11581408944784 3.175
    vertex 88.15872375327763 97.9294229669848 0.0
    vertex 88.15872375327763 97.9294229669848 3.175
  endloop
endfacet
facet normal 0.9914448613738103 0.13052619222005382 -0.0
  outer loop
    vertex 88.49573158482058 97.11581408944784 0.0
    vertex 88.61067868019856 96.2427042169848 3.175
    vertex 88.61067868019856 96.2427042169848 0.0
  endloop
endfacet
facet normal 0.9914448613738103 0.13052619222005382 -0.0
  outer loop
    vertex 88.61067868019856 96.2427042169848 3.175
    vertex 88.49573158482058 97.11581408944784 0.0
    vertex 88.49573158482058 97.11581408944784 3.175
  endloop
endfacet
facet normal 0.9914448613738103 -0.13052619222005382 -0.0
  outer loop
    vertex 88.61067868019856 96.2427042169848 0.0
    vertex 88.49573158482058 95.36959434452177 3.175
    vertex 88.49573158482058 95.36959434452177 0.0
  endloop
endfacet
facet normal 0.9914448613738103 -0.13052619222005382 -0.0
  outer loop
    vertex 88.49573158482058 95.36959434452177 3.175
    vertex 88.61067868019856 96.2427042169848 0.0
    vertex 88.61067868019856 96.2427042169848 3.175
  endloop
endfacet
facet normal 0.9238795325112891 -0.3826834323650845 0.0
  outer loop
    vertex 88.49573158482058 95.36959434452177 0.0
    vertex 88.15872375327763 94.55598546698481 3.175
    vertex 88.15872375327763 94.55598546698481 0.0
  endloop
endfacet
facet normal 0.9238795325112891 -0.3826834323650845 0.0
  outer loop
    vertex 88.15872375327763 94.55598546698481 3.175
    vertex 88.49573158482058 95.36959434452177 0.0
    vertex 88.49573158482058 95.36959434452177 3.175
  endloop
endfacet
facet normal 0.79335334029123 -0.6087614290087275 0.0
  outer loop
    vertex 88.15872375327763 94.55598546698481 0.0
    vertex 87.62262171235754 93.85732368482581 3.175
    vertex 87.62262171235754 93.85732368482581 0.0
  endloop
endfacet
facet normal 0.79335334029123 -0.6087614290087275 0.0
  outer loop
    vertex 87.62262171235754 93.85732368482581 3.175
    vertex 88.15872375327763 94.55598546698481 0.0
    vertex 88.15872375327763 94.55598546698481 3.175
  endloop
endfacet
facet normal 0.6087614290087275 -0.79335334029123 0.0
  outer loop
    vertex 87.62262171235754 93.85732368482581 3.175
    vertex 86.92395993019855 93.32122164390573 0.0
    vertex 87.62262171235754 93.85732368482581 0.0
  endloop
endfacet
facet normal 0.6087614290087275 -0.79335334029123 0.0
  outer loop
    vertex 86.92395993019855 93.32122164390573 0.0
    vertex 87.62262171235754 93.85732368482581 3.175
    vertex 86.92395993019855 93.32122164390573 3.175
  endloop
endfacet
facet normal 0.3826834323650845 -0.9238795325112891 0.0
  outer loop
    vertex 86.92395993019855 93.32122164390573 3.175
    vertex 86.11035105266158 92.98421381236278 0.0
    vertex 86.92395993019855 93.32122164390573 0.0
  endloop
endfacet
facet normal 0.3826834323650845 -0.9238795325112891 0.0
  outer loop
    vertex 86.11035105266158 92.98421381236278 0.0
    vertex 86.92395993019855 93.32122164390573 3.175
    vertex 86.11035105266158 92.98421381236278 3.175
  endloop
endfacet
facet normal 0.130526192220045 0.9914448613738114 -3.813504839970404e-19
  outer loop
    vertex 84.51820952052311 93.55924153082547 2.7781249999999984
    vertex 85.23724118019855 93.4645792169848 0.0
    vertex 84.51820952052311 93.55924153082547 0.0
  endloop
endfacet
facet normal 0.130526192220045 0.9914448613738114 -3.813504839970404e-19
  outer loop
    vertex 85.23724118019855 93.4645792169848 0.0
    vertex 84.51820952052311 93.55924153082547 2.7781249999999984
    vertex 85.23724118019855 93.4645792169848 2.7781249999999984
  endloop
endfacet
facet normal -0.130526192220045 0.9914448613738114 3.8135048399686694e-19
  outer loop
    vertex 85.23724118019855 93.4645792169848 2.7781249999999984
    vertex 85.95627283987399 93.55924153082547 0.0
    vertex 85.23724118019855 93.4645792169848 0.0
  endloop
endfacet
facet normal -0.130526192220045 0.9914448613738114 3.8135048399686694e-19
  outer loop
    vertex 85.95627283987399 93.55924153082547 0.0
    vertex 85.23724118019855 93.4645792169848 2.7781249999999984
    vertex 85.95627283987399 93.55924153082547 2.7781249999999984
  endloop
endfacet
facet normal -0.38268343236509117 0.9238795325112862 -1.1180630467209957e-18
  outer loop
    vertex 85.95627283987399 93.55924153082547 2.7781249999999984
    vertex 86.62630368019856 93.83677739209615 0.0
    vertex 85.95627283987399 93.55924153082547 0.0
  endloop
endfacet
facet normal -0.38268343236509117 0.9238795325112862 -1.1180630467209957e-18
  outer loop
    vertex 86.62630368019856 93.83677739209615 0.0
    vertex 85.95627283987399 93.55924153082547 2.7781249999999984
    vertex 86.62630368019856 93.83677739209615 2.7781249999999984
  endloop
endfacet
endsolid fillement slip fix
